<svg width="83" height="82" viewBox="0 0 83 82" fill="none" xmlns="http://www.w3.org/2000/svg">
<g id="iconamoon:search-bold">
<path id="Vector" d="M72.6251 71.4798L57.6055 56.6974M57.6055 56.6974C60.1747 54.1688 62.2126 51.1669 63.6031 47.8631C64.9935 44.5593 65.7091 41.0183 65.7091 37.4424C65.7091 33.8664 64.9935 30.3254 63.6031 27.0216C62.2127 23.7178 60.1747 20.716 57.6055 18.1874C55.0364 15.6588 51.9863 13.653 48.6296 12.2845C45.2728 10.916 41.6751 10.2117 38.0417 10.2117C34.4084 10.2117 30.8107 10.916 27.4539 12.2845C24.0971 13.653 21.0471 15.6588 18.4779 18.1874C13.2893 23.2941 10.3744 30.2203 10.3744 37.4424C10.3744 44.6644 13.2893 51.5906 18.4779 56.6974C23.6666 61.8041 30.7039 64.673 38.0417 64.673C45.3796 64.673 52.4169 61.8041 57.6055 56.6974Z" stroke="black" stroke-width="8.64583" stroke-linecap="round" stroke-linejoin="round"/>
</g>
</svg>
